<svg width="125" height="114" viewBox="0 0 125 114" fill="none" xmlns="http://www.w3.org/2000/svg">
<path id="Vector" d="M115.716 19.8747H90.1692V13.864C90.1692 10.357 88.7593 6.99354 86.2498 4.51367C83.7402 2.0338 80.3364 0.640625 76.7874 0.640625H47.5905C44.0415 0.640625 40.6377 2.0338 38.1281 4.51367C35.6186 6.99354 34.2087 10.357 34.2087 13.864V19.8747H8.66148C6.40297 19.8747 4.23696 20.7612 2.63995 22.3393C1.04294 23.9174 0.145752 26.0578 0.145752 28.2896V105.226C0.145752 107.458 1.04294 109.598 2.63995 111.176C4.23696 112.754 6.40297 113.641 8.66148 113.641H115.716C117.975 113.641 120.141 112.754 121.738 111.176C123.335 109.598 124.232 107.458 124.232 105.226V28.2896C124.232 26.0578 123.335 23.9174 121.738 22.3393C120.141 20.7612 117.975 19.8747 115.716 19.8747ZM41.5079 13.864C41.5079 12.2699 42.1487 10.7411 43.2895 9.61387C44.4302 8.48665 45.9773 7.85339 47.5905 7.85339H76.7874C78.4006 7.85339 79.9477 8.48665 81.0884 9.61387C82.2292 10.7411 82.87 12.2699 82.87 13.864V19.8747H41.5079V13.864ZM82.87 27.0874V106.428H41.5079V27.0874H82.87ZM7.44495 105.226V28.2896C7.44495 27.9707 7.57312 27.665 7.80127 27.4395C8.02941 27.2141 8.33884 27.0874 8.66148 27.0874H34.2087V106.428H8.66148C8.33884 106.428 8.02941 106.301 7.80127 106.076C7.57312 105.85 7.44495 105.545 7.44495 105.226ZM116.933 105.226C116.933 105.545 116.805 105.85 116.577 106.076C116.348 106.301 116.039 106.428 115.716 106.428H90.1692V27.0874H115.716C116.039 27.0874 116.348 27.2141 116.577 27.4395C116.805 27.665 116.933 27.9707 116.933 28.2896V105.226Z" fill="#012440"/>
</svg>
