<svg width="148" height="116" viewBox="0 0 148 116" fill="none" xmlns="http://www.w3.org/2000/svg">
<path id="Vector" d="M0.63916 97.125C0.63916 101.998 2.57509 106.672 6.02107 110.118C9.46705 113.564 14.1408 115.5 19.0142 115.5H129.264C134.138 115.5 138.811 113.564 142.257 110.118C145.703 106.672 147.639 101.998 147.639 97.125V46.5938H0.63916V97.125ZM22.2954 72.1875C22.2954 69.5768 23.3325 67.073 25.1786 65.2269C27.0246 63.3809 29.5284 62.3438 32.1392 62.3438H47.8892C50.4999 62.3438 53.0037 63.3809 54.8497 65.2269C56.6958 67.073 57.7329 69.5768 57.7329 72.1875V78.75C57.7329 81.3607 56.6958 83.8645 54.8497 85.7106C53.0037 87.5566 50.4999 88.5938 47.8892 88.5938H32.1392C29.5284 88.5938 27.0246 87.5566 25.1786 85.7106C23.3325 83.8645 22.2954 81.3607 22.2954 78.75V72.1875ZM129.264 0H19.0142C14.1408 0 9.46705 1.93593 6.02107 5.38191C2.57509 8.8279 0.63916 13.5016 0.63916 18.375V26.9062H147.639V18.375C147.639 13.5016 145.703 8.8279 142.257 5.38191C138.811 1.93593 134.138 0 129.264 0Z" fill="#012440"/>
</svg>
