<svg width="14" height="14" viewBox="0 0 14 14" fill="none" xmlns="http://www.w3.org/2000/svg">
<path id="Vector" d="M7 0C5.61553 0 4.26215 0.410543 3.11101 1.17971C1.95987 1.94888 1.06266 3.04213 0.532846 4.32122C0.00303287 5.6003 -0.13559 7.00776 0.134506 8.36563C0.404603 9.7235 1.07129 10.9708 2.05026 11.9497C3.02922 12.9287 4.2765 13.5954 5.63437 13.8655C6.99224 14.1356 8.3997 13.997 9.67878 13.4672C10.9579 12.9373 12.0511 12.0401 12.8203 10.889C13.5895 9.73785 14 8.38447 14 7C13.9978 5.14415 13.2596 3.36494 11.9473 2.05266C10.6351 0.740377 8.85585 0.0021795 7 0ZM7 13.1765C5.77841 13.1765 4.58425 12.8142 3.56854 12.1355C2.55282 11.4569 1.76117 10.4922 1.29369 9.36363C0.826206 8.23503 0.703891 6.99315 0.942211 5.79503C1.18053 4.59691 1.76878 3.49637 2.63258 2.63258C3.49637 1.76878 4.59691 1.18053 5.79503 0.942208C6.99315 0.703888 8.23503 0.826203 9.36363 1.29368C10.4922 1.76117 11.4569 2.55282 12.1355 3.56854C12.8142 4.58425 13.1765 5.77841 13.1765 7C13.1747 8.63754 12.5233 10.2075 11.3654 11.3654C10.2075 12.5233 8.63754 13.1747 7 13.1765ZM11.2549 7C11.2549 7.1092 11.2115 7.21394 11.1343 7.29116C11.0571 7.36838 10.9523 7.41176 10.8431 7.41176H7C6.89079 7.41176 6.78606 7.36838 6.70884 7.29116C6.63162 7.21394 6.58824 7.1092 6.58824 7V3.15686C6.58824 3.04766 6.63162 2.94292 6.70884 2.8657C6.78606 2.78848 6.89079 2.7451 7 2.7451C7.10921 2.7451 7.21394 2.78848 7.29116 2.8657C7.36838 2.94292 7.41177 3.04766 7.41177 3.15686V6.58823H10.8431C10.9523 6.58823 11.0571 6.63162 11.1343 6.70884C11.2115 6.78606 11.2549 6.89079 11.2549 7Z" fill="#012440"/>
</svg>
