<svg width="32" height="32" viewBox="0 0 32 32" fill="none" xmlns="http://www.w3.org/2000/svg">
<g id="ei:arrow-up">
<path id="Vector" d="M5.12 16C5.12 9.984 9.984 5.12 16 5.12C22.016 5.12 26.88 9.984 26.88 16C26.88 22.016 22.016 26.88 16 26.88C9.984 26.88 5.12 22.016 5.12 16ZM25.6 16C25.6 10.688 21.312 6.4 16 6.4C10.688 6.4 6.40001 10.688 6.40001 16C6.40001 21.312 10.688 25.6 16 25.6C21.312 25.6 25.6 21.312 25.6 16Z" fill="#012440"/>
<path id="Vector_2" d="M14.912 21.312L20.224 16L14.912 10.688L15.808 9.792L22.016 16L15.808 22.208L14.912 21.312Z" fill="#012440"/>
<path id="Vector_3" d="M21.12 15.36V16.64L10.24 16.64V15.36L21.12 15.36Z" fill="#012440"/>
</g>
</svg>
