<svg width="35" height="32" viewBox="0 0 35 32" fill="none" xmlns="http://www.w3.org/2000/svg">
<g id="fluent:ios-arrow-24-filled">
<path id="Vector" d="M18.5892 5.37785C18.7149 5.25586 18.8133 5.11236 18.8785 4.95554C18.9438 4.79872 18.9747 4.63165 18.9695 4.46388C18.9643 4.2961 18.9232 4.13091 18.8483 3.97772C18.7735 3.82453 18.6665 3.68635 18.5334 3.57108C18.4003 3.4558 18.2438 3.36567 18.0727 3.30585C17.9016 3.24604 17.7194 3.21769 17.5364 3.22243C17.3533 3.22718 17.1731 3.26493 17.006 3.33352C16.8389 3.40211 16.6882 3.5002 16.5624 3.62219L4.71391 15.1222C4.46922 15.3594 4.33289 15.6735 4.33289 16C4.33289 16.3265 4.46922 16.6406 4.71391 16.8779L16.5624 28.3791C16.6873 28.5038 16.838 28.6045 17.0058 28.6753C17.1735 28.7461 17.3549 28.7857 17.5394 28.7917C17.724 28.7977 17.908 28.77 18.0808 28.7103C18.2536 28.6506 18.4117 28.56 18.546 28.4437C18.6802 28.3275 18.788 28.188 18.8629 28.0333C18.9379 27.8786 18.9785 27.7118 18.9825 27.5425C18.9866 27.3733 18.9539 27.205 18.8863 27.0474C18.8188 26.8899 18.7178 26.7462 18.5892 26.6247L7.64397 16L18.5892 5.37785Z" fill="#3E8AD7" fill-opacity="0.25"/>
</g>
</svg>
