<svg width="34" height="32" viewBox="0 0 34 32" fill="none" xmlns="http://www.w3.org/2000/svg">
<g id="fluent:ios-arrow-24-filled">
<path id="Vector" d="M16.0169 26.6223C15.8911 26.7443 15.7928 26.8878 15.7276 27.0446C15.6623 27.2014 15.6314 27.3685 15.6366 27.5362C15.6417 27.704 15.6829 27.8692 15.7577 28.0224C15.8326 28.1756 15.9396 28.3138 16.0727 28.429C16.2057 28.5443 16.3623 28.6344 16.5334 28.6943C16.7044 28.7541 16.8867 28.7824 17.0697 28.7777C17.2527 28.7729 17.433 28.7352 17.6001 28.6666C17.7672 28.598 17.9179 28.4999 18.0437 28.3779L29.8922 16.8779C30.1369 16.6407 30.2732 16.3266 30.2732 16.0001C30.2732 15.6736 30.1369 15.3595 29.8922 15.1223L18.0437 3.62099C17.9188 3.49633 17.7681 3.39566 17.6003 3.32484C17.4326 3.25402 17.2512 3.21446 17.0666 3.20845C16.8821 3.20244 16.6981 3.2301 16.5253 3.28983C16.3525 3.34956 16.1944 3.44017 16.0601 3.55639C15.9258 3.67261 15.8181 3.81212 15.7432 3.96683C15.6682 4.12154 15.6276 4.28836 15.6235 4.4576C15.6195 4.62684 15.6522 4.79512 15.7197 4.95267C15.7873 5.11023 15.8883 5.25391 16.0169 5.37538L26.9621 16.0001L16.0169 26.6223Z" fill="#3E8AD7" fill-opacity="0.7"/>
</g>
</svg>
