<svg width="15" height="14" viewBox="0 0 15 14" fill="none" xmlns="http://www.w3.org/2000/svg">
<path id="Vector" d="M7.9043 0C6.51983 0 5.16645 0.410543 4.01531 1.17971C2.86416 1.94888 1.96696 3.04213 1.43714 4.32122C0.90733 5.6003 0.768707 7.00776 1.0388 8.36563C1.3089 9.7235 1.97558 10.9708 2.95455 11.9497C3.93352 12.9287 5.1808 13.5954 6.53867 13.8655C7.89653 14.1356 9.304 13.997 10.5831 13.4672C11.8622 12.9373 12.9554 12.0401 13.7246 10.889C14.4938 9.73785 14.9043 8.38447 14.9043 7C14.9021 5.14415 14.1639 3.36494 12.8516 2.05266C11.5394 0.740377 9.76014 0.0021795 7.9043 0ZM7.9043 13.1765C6.68271 13.1765 5.48855 12.8142 4.47284 12.1355C3.45712 11.4569 2.66547 10.4922 2.19798 9.36363C1.7305 8.23503 1.60819 6.99315 1.84651 5.79503C2.08483 4.59691 2.67308 3.49637 3.53688 2.63258C4.40067 1.76878 5.50121 1.18053 6.69933 0.942208C7.89745 0.703888 9.13933 0.826203 10.2679 1.29368C11.3965 1.76117 12.3612 2.55282 13.0398 3.56854C13.7185 4.58425 14.0808 5.77841 14.0808 7C14.079 8.63754 13.4276 10.2075 12.2697 11.3654C11.1118 12.5233 9.54184 13.1747 7.9043 13.1765ZM12.1592 7C12.1592 7.1092 12.1158 7.21394 12.0386 7.29116C11.9614 7.36838 11.8566 7.41176 11.7474 7.41176H7.9043C7.79509 7.41176 7.69036 7.36838 7.61314 7.29116C7.53592 7.21394 7.49253 7.1092 7.49253 7V3.15686C7.49253 3.04766 7.53592 2.94292 7.61314 2.8657C7.69036 2.78848 7.79509 2.7451 7.9043 2.7451C8.0135 2.7451 8.11824 2.78848 8.19546 2.8657C8.27268 2.94292 8.31606 3.04766 8.31606 3.15686V6.58823H11.7474C11.8566 6.58823 11.9614 6.63162 12.0386 6.70884C12.1158 6.78606 12.1592 6.89079 12.1592 7Z" fill="white"/>
</svg>
