<svg width="101" height="115" viewBox="0 0 101 115" fill="none" xmlns="http://www.w3.org/2000/svg">
<path id="Vector" d="M92.5271 41.0714H58.9627V8.21429H8.61619V106.786H92.5271V41.0714ZM89.0532 32.8571L67.3538 11.615V32.8571H89.0532ZM4.42064 0H67.3538L100.918 32.8571V110.893C100.918 111.982 100.476 113.027 99.6893 113.797C98.9025 114.567 97.8354 115 96.7226 115H4.42064C3.30791 115 2.24076 114.567 1.45395 113.797C0.667128 113.027 0.225098 111.982 0.225098 110.893V4.10714C0.225098 3.01786 0.667128 1.97319 1.45395 1.20295C2.24076 0.432715 3.30791 0 4.42064 0ZM25.3984 57.5H75.7449V65.7143H25.3984V57.5ZM25.3984 32.8571H46.3761V41.0714H25.3984V32.8571ZM25.3984 82.1429H75.7449V90.3571H25.3984V82.1429Z" fill="#012440"/>
</svg>
