<svg width="133" height="116" viewBox="0 0 133 116" fill="none" xmlns="http://www.w3.org/2000/svg">
<path id="Vector" d="M23.0815 57.9692H20.5642L66.7803 104.29L104.734 66.2501H116.417L66.7803 116L10.9466 60.1041C9.44047 58.5946 8.10648 56.9772 6.94462 55.252C5.78277 53.5268 4.77152 51.6723 3.91088 49.6883H19.596L37.863 31.4445L66.7803 60.3629L87.4356 39.7254L97.4405 49.6883H120.355C121.732 47.4887 122.786 45.1597 123.518 42.7013C124.249 40.243 124.615 37.7199 124.615 35.1321C124.615 31.3798 123.927 27.8863 122.55 24.6516C121.173 21.4169 119.258 18.6135 116.805 16.2414C114.352 13.8692 111.512 11.9931 108.284 10.6129C105.057 9.2328 101.55 8.54273 97.7632 8.54273C94.1485 8.54273 90.9427 9.10342 88.1456 10.2248C85.3485 11.3462 82.7666 12.8557 80.3999 14.7534C78.0331 16.6511 75.774 18.7429 73.6224 21.0287C71.4708 23.3146 69.1901 25.7083 66.7803 28.2098C64.4566 25.8808 62.1974 23.5302 60.0028 21.1581C57.8082 18.786 55.5275 16.6511 53.1608 14.7534C50.794 12.8557 48.1906 11.303 45.3505 10.0954C42.5104 8.88777 39.326 8.28395 35.7974 8.28395C32.0967 8.28395 28.6326 8.97403 25.4053 10.3542C22.1779 11.7343 19.3378 13.6536 16.885 16.112C14.4322 18.5704 12.5172 21.4169 11.1402 24.6516C9.76321 27.8863 9.05318 31.3798 9.01015 35.1321C9.01015 37.1592 9.24683 39.251 9.72017 41.4074H1.26443C1.04927 40.3723 0.920174 39.3372 0.877142 38.3021C0.83411 37.267 0.791079 36.2319 0.748047 35.1968C0.748047 30.3232 1.65171 25.7514 3.45905 21.4816C5.26638 17.2118 7.76223 13.4811 10.9466 10.2895C14.1309 7.09789 17.8532 4.59638 22.1133 2.78494C26.3735 0.973495 30.9348 0.0462102 35.7974 0.00308068C39.3691 0.00308068 42.5534 0.412811 45.3505 1.23227C48.1476 2.05173 50.7295 3.1731 53.0962 4.59638C55.463 6.01965 57.7436 7.7664 59.9383 9.83662C62.1329 11.9068 64.4136 14.128 66.7803 16.5001C69.1471 14.0849 71.4062 11.8637 73.5578 9.83662C75.7094 7.80953 77.9901 6.08435 80.3999 4.66107C82.8097 3.2378 85.4131 2.09486 88.2102 1.23227C91.0072 0.369682 94.1916 -0.0400489 97.7632 0.00308068C102.583 0.00308068 107.123 0.908801 111.383 2.72024C115.643 4.53168 119.344 7.0332 122.485 10.2248C125.626 13.4164 128.122 17.1255 129.973 21.3522C131.823 25.5789 132.748 30.1291 132.748 35.0027C132.748 39.1863 132.017 43.2405 130.553 47.1652C129.09 51.09 127.003 54.6913 124.292 57.9692H93.9549L87.4356 51.3704L66.7803 72.1373L37.863 43.0895L23.0815 57.9692Z" fill="#012440"/>
</svg>
